<?xml version="1.0" encoding="UTF-8" standalone="no"?>
<svg width="105px" height="105px" viewBox="0 0 105 105" version="1.1" xmlns="http://www.w3.org/2000/svg" xmlns:xlink="http://www.w3.org/1999/xlink" xmlns:sketch="http://www.bohemiancoding.com/sketch/ns">
    <title>Slice 1</title>
    <description>Created with Sketch (http://www.bohemiancoding.com/sketch)</description>
    <defs></defs>
    <g id="Page 1" stroke="none" stroke-width="1" fill="none" fill-rule="evenodd">
        <path d="M52.4500992,90 C74.501679,90 84.3831441,74.6972377 84.7942872,74.0480718 C87.1138075,70.3620355 85.9870229,65.5030428 82.269897,63.1947427 C78.5611903,60.8948009 73.6625543,62.014821 71.3416308,65.7008573 C71.2869053,65.7914062 65.5926443,74.2542447 52.4515025,74.2542447 C39.5222466,74.2542447 34.0005816,66.2232548 33.6680188,65.716181 C31.3779661,62.0566128 26.5424749,60.9087315 22.8281553,63.1362342 C19.0787553,65.3888119 17.8790035,70.2296948 20.1466047,73.9505577 C20.546522,74.6066888 30.1824238,90 52.4500992,90 Z M52.5,105 C23.5050492,105 0,81.4949508 0,52.5 C0,23.5050492 23.5050492,0 52.5,0 C81.4949508,0 105,23.5050492 105,52.5 C105,81.4949508 81.4949508,105 52.5,105 Z M36.5,46 C41.7467054,46 46,40.1797021 46,33 C46,25.8202979 41.7467054,20 36.5,20 C31.2532946,20 27,25.8202979 27,33 C27,40.1797021 31.2532946,46 36.5,46 Z M79,32.9985993 C79,25.8199547 74.7470528,20.0014007 69.4958521,20 C64.2515645,20 60,25.8199547 60,32.9985993 C60,40.1772438 64.2515645,46 69.4958521,46 C74.7470528,46 79,40.1772438 79,32.9985993 Z M79,32.9985993" id="Oval 3" fill="#000000"></path>
    </g>
</svg>