<?xml version="1.0" encoding="UTF-8" standalone="no"?>
<svg width="130px" height="130px" viewBox="0 0 130 130" version="1.1" xmlns="http://www.w3.org/2000/svg" xmlns:xlink="http://www.w3.org/1999/xlink" xmlns:sketch="http://www.bohemiancoding.com/sketch/ns">
    <title>Slice 1</title>
    <description>Created with Sketch (http://www.bohemiancoding.com/sketch)</description>
    <defs></defs>
    <g id="Page 1" stroke="none" stroke-width="1" fill="none" fill-rule="evenodd">
        <path d="M110.625,39.453125 C111.281253,39.2656241 111.937497,39.0781259 112.59375,38.890625 C113.250003,38.7031241 113.765623,38.609375 114.140625,38.609375 C114.890629,38.609375 115.523435,38.960934 116.039062,39.6640625 C116.55469,40.367191 117.140622,41.6562406 117.796875,43.53125 L121.3125,54.21875 C121.593751,55.3437556 121.804687,56.257809 121.945312,56.9609375 C122.085938,57.664066 122.15625,58.1562486 122.15625,58.4375 C122.15625,59.1875038 121.781254,59.8437472 121.03125,60.40625 C120.281246,60.9687528 119.203132,61.3906236 117.796875,61.671875 L78.421875,70.53125 L104.859375,101.1875 C105.515628,101.750003 106.007811,102.382809 106.335938,103.085938 C106.664064,103.789066 106.828125,104.468747 106.828125,105.125 C106.828125,105.593752 106.523441,106.179684 105.914062,106.882812 C105.304684,107.585941 104.48438,108.359371 103.453125,109.203125 L94.171875,115.8125 C93.0468694,116.656254 92.1562533,117.242186 91.5,117.570312 C90.8437467,117.898439 90.2812523,118.0625 89.8125,118.0625 C89.2499972,118.0625 88.6406283,117.781253 87.984375,117.21875 C87.3281217,116.656247 86.7187528,115.906255 86.15625,114.96875 L65.34375,80.09375 L44.671875,114.96875 C44.0156217,116.000005 43.335941,116.773435 42.6328125,117.289062 C41.929684,117.80469 41.2500033,118.0625 40.59375,118.0625 C40.2187481,118.0625 39.6562538,117.875002 38.90625,117.5 C38.1562462,117.124998 37.3125047,116.562504 36.375,115.8125 L27.375,109.203125 C26.1562439,108.359371 25.2187533,107.585941 24.5625,106.882812 C23.9062467,106.179684 23.578125,105.500003 23.578125,104.84375 C23.578125,104.374998 23.7656231,103.789066 24.140625,103.085938 C24.5156269,102.382809 25.0312467,101.750003 25.6875,101.1875 L52.125,70.53125 L13.03125,61.671875 C11.5312425,61.3906236 10.3828165,60.9453155 9.5859375,60.3359375 C8.78905852,59.7265595 8.390625,59.0000042 8.390625,58.15625 C8.390625,57.9687491 8.55468586,57.3828174 8.8828125,56.3984375 C9.21093914,55.4140576 9.42187453,54.6875023 9.515625,54.21875 L13.03125,43.53125 C13.5937528,41.6562406 14.1562472,40.367191 14.71875,39.6640625 C15.2812528,38.960934 15.9374962,38.609375 16.6875,38.609375 C17.4375038,38.609375 18.0937472,38.6562495 18.65625,38.75 C19.2187528,38.8437505 19.7343727,38.9843741 20.203125,39.171875 L57.328125,55.34375 L53.53125,14.984375 L53.53125,13.296875 C53.53125,11.703117 53.9531208,10.6250028 54.796875,10.0625 C55.6406292,9.49999719 57.3281123,9.21875 59.859375,9.21875 L70.828125,9.21875 C73.4531381,9.21875 75.1640585,9.49999719 75.9609375,10.0625 C76.7578165,10.6250028 77.15625,11.703117 77.15625,13.296875 L77.15625,14.984375 L73.5,55.34375 L110.625,39.453125 Z M110.625,39.453125" id="*" fill="#000000"></path>
    </g>
</svg>