<?xml version="1.0" encoding="UTF-8" standalone="no"?>
<svg width="89px" height="126px" viewBox="0 0 89 126" version="1.1" xmlns="http://www.w3.org/2000/svg" xmlns:xlink="http://www.w3.org/1999/xlink" xmlns:sketch="http://www.bohemiancoding.com/sketch/ns">
    <title>Slice 1</title>
    <description>Created with Sketch (http://www.bohemiancoding.com/sketch)</description>
    <defs></defs>
    <g id="Page 1" stroke="none" stroke-width="1" fill="none" fill-rule="evenodd">
        <g id="Layer_1" fill="#FFFFFF">
            <path d="M88.0509343,110.710303 C87.0029088,112.937574 85.0616082,114.333246 82.8573577,114.859462 C83.8814787,116.881042 84.1356217,119.279933 83.1203077,121.505942 C81.3664691,125.368648 76.8296383,127.059607 72.9961044,125.3106 C69.1298591,123.551497 67.4427016,119.001051 69.2116378,115.147178 C69.2682538,114.98313 69.4242624,114.892272 69.5060411,114.728224 L44.4201099,103.431607 L19.0196453,114.022816 C19.101424,114.178031 19.2373025,114.27646 19.298951,114.432937 C20.9496227,118.336024 19.139168,122.84609 15.2326624,124.505501 C11.3412543,126.139674 6.86481402,124.308643 5.21540052,120.396723 C4.26928386,118.137904 4.58884986,115.754157 5.66581245,113.766649 C3.48672459,113.174813 1.56177978,111.712259 0.599307368,109.469846 C-1.02997599,105.56802 0.771671708,101.049121 4.6832099,99.4225196 C8.57461795,97.7706797 13.0498001,99.6042346 14.7004717,103.497226 C14.7621203,103.661275 14.7419902,103.834156 14.8036387,103.990633 L30.8410711,97.3025111 L14.9961332,90.1638872 C14.9395172,90.3191021 14.9546148,90.5008172 14.881643,90.657294 C13.1328369,94.5099047 8.59474809,96.2096972 4.74485846,94.4606902 C0.916357103,92.7028498 -0.775832948,88.1511411 0.972973127,84.289697 C1.99331969,82.0624262 3.95852479,80.6831587 6.15774279,80.1329661 C5.11726608,78.118958 4.86312304,75.7200674 5.88346961,73.4940585 C7.63227568,69.6313525 12.1703645,67.9403933 16.0202542,69.6894003 C19.8701438,71.4396693 21.5610757,75.9901161 19.7921395,79.8528221 C19.7304909,80.0168703 19.5707079,80.1152993 19.5128338,80.2553713 L44.5975068,91.5759643 L69.9816157,80.9860171 C69.9010951,80.8219688 69.7601841,80.7311113 69.6872124,80.567063 C68.0491221,76.6399997 69.8595767,72.1539102 73.7660824,70.5020703 C77.6574904,68.8590637 82.1377051,70.6749519 83.7846023,74.5931819 C84.7256865,76.844429 84.4149274,79.2508911 83.3178347,81.2409229 C85.5120201,81.8239252 87.436965,83.2625024 88.395663,85.5364639 C90.0337533,89.4307176 88.2321056,93.9243785 84.316793,95.5762185 C80.4253849,97.2280584 75.9464284,95.4033368 74.2995311,91.5015117 C74.2253012,91.3462967 74.2580127,91.1645817 74.1925898,91.0081049 L58.1715131,97.6873936 L74.0051278,104.834851 C74.0617438,104.679636 74.0453881,104.497921 74.119618,104.341444 C75.8885542,100.488833 80.4014804,98.7890409 84.2350143,100.538048 C88.1088084,102.29715 89.795966,106.840026 88.0509343,110.710303 L88.0509343,110.710303 Z M88.0509343,110.710303" id="Shape"></path>
            <path d="M75,28.5977983 C75,12.8142592 61.320932,0 44.4981265,0 C27.6490919,0 14,12.8142592 14,28.5977983 C14,34.3396589 15.8422777,39.6580526 18.9398022,44.1445467 C16.9476443,45.9461604 15.6948955,48.4518818 15.6948955,51.2482669 C15.6948955,55.8650586 19.1059194,59.5760319 23.6522861,60.7098709 L23.6522861,64.1527321 C23.6522861,70.1150961 28.5183972,75 34.4711399,75 L54.5238641,75 C60.4766068,75 65.3389709,70.1150961 65.3389709,64.1527321 L65.3389709,60.6935837 C69.8603575,59.5597448 73.2588915,55.8487714 73.2588915,51.2482669 C73.2588915,48.4669161 72.0148856,45.9624476 70.0389648,44.159581 C73.1452323,39.6655697 75,34.3484289 75,28.5977983 L75,28.5977983 Z M31.5062935,38 C26.8314823,38 23,34.4244235 23,30.0042902 C23,25.5841569 26.8302236,22 31.5062935,22 C36.1899156,22 40,25.5829311 40,30.0042902 C40,34.4256493 36.1886569,38 31.5062935,38 L31.5062935,38 Z M45.5726169,50.9506282 L37,55 L45.6516037,41 L54,54.7262431 L45.5726169,50.9506282 L45.5726169,50.9506282 Z M58.4993699,38 C53.8060642,38 50,34.4244235 50,30.0042902 C50,25.5841569 53.8073245,22 58.4993699,22 C63.1762918,22 67,25.5829311 67,30.0042902 C67,34.4256493 63.1762918,38 58.4993699,38 L58.4993699,38 Z M58.4993699,38" id="Shape"></path>
        </g>
    </g>
</svg>