<?xml version="1.0" encoding="UTF-8" standalone="no"?>
<svg width="404px" height="403px" viewBox="0 0 404 403" version="1.1" xmlns="http://www.w3.org/2000/svg" xmlns:xlink="http://www.w3.org/1999/xlink" xmlns:sketch="http://www.bohemiancoding.com/sketch/ns">
    <title>Slice 1</title>
    <description>Created with Sketch (http://www.bohemiancoding.com/sketch)</description>
    <defs></defs>
    <g id="Page 1" stroke="none" stroke-width="1" fill="none" fill-rule="evenodd">
        <path d="M2.95210613,63.2579592 L63.7579592,2.45210613 C66.8822633,-0.672197939 71.9516035,-0.673288192 75.077605,2.45271337 L202,129.375108 L328.922395,2.45271337 C332.049593,-0.674484477 337.116375,-0.673560063 340.242041,2.45210613 L401.047894,63.2579592 C404.172198,66.3822633 404.173288,71.4516035 401.047287,74.577605 L274.124892,201.5 L401.047287,328.422395 C404.174484,331.549593 404.17356,336.616375 401.047894,339.742041 L340.242041,400.547894 C337.117737,403.672198 332.048397,403.673288 328.922395,400.547287 L202,273.624892 L75.077605,400.547287 C71.9504072,403.674484 66.8836254,403.67356 63.7579592,400.547894 L2.95210613,339.742041 C-0.172197939,336.617737 -0.173288192,331.548397 2.95271337,328.422395 L129.875108,201.5 L2.95271337,74.577605 C-0.174484477,71.4504072 -0.173560063,66.3836254 2.95210613,63.2579592 Z M2.95210613,63.2579592" id="Rectangle 1" fill="#000000"></path>
    </g>
</svg>