<?xml version="1.0" encoding="UTF-8" standalone="no"?>
<svg width="192px" height="145px" viewBox="0 0 192 145" version="1.1" xmlns="http://www.w3.org/2000/svg" xmlns:xlink="http://www.w3.org/1999/xlink" xmlns:sketch="http://www.bohemiancoding.com/sketch/ns">
    <title>Slice 1</title>
    <description>Created with Sketch (http://www.bohemiancoding.com/sketch)</description>
    <defs></defs>
    <g id="Page 1" stroke="none" stroke-width="1" fill="none" fill-rule="evenodd">
        <path d="M89.3418542,4.98721869 C93.0190466,-0.528569885 98.9792218,-0.53116733 102.658146,4.98721869 L189.341854,135.012781 C193.019047,140.52857 190.624638,145 183.995298,145 L8.0047024,145 C1.37468834,145 -1.02077822,140.531167 2.65814579,135.012781 Z M88.2651711,86.3515625 C88.6870482,90.7109593 89.3901662,93.9570206 90.3745461,96.0898437 C91.358926,98.2226669 93.1167209,99.2890625 95.6479836,99.2890625 C98.132371,99.2890625 99.9136032,98.187511 100.991734,95.984375 C102.069864,93.781239 102.772982,90.6172081 103.101109,86.4921875 L106.124546,51.828125 C106.452673,48.6406091 106.616734,45.5000155 106.616734,42.40625 C106.616734,37.1562237 105.937053,33.1367327 104.577671,30.3476562 C103.218289,27.5585798 100.523004,26.1640625 96.4917336,26.1640625 C93.1635919,26.1640625 90.480025,27.2538954 88.4409523,29.4335937 C86.4018796,31.6132921 85.3823586,34.648418 85.3823586,38.5390625 C85.3823586,41.3984518 85.593294,46.1093422 86.0151711,52.671875 Z M96.0698586,132.617187 C98.8823726,132.617187 101.343286,131.679697 103.452671,129.804687 C105.562057,127.929678 106.616734,125.351579 106.616734,122.070312 C106.616734,119.164048 105.573775,116.691416 103.487827,114.652344 C101.401879,112.613271 98.8823733,111.59375 95.9292336,111.59375 C92.9760938,111.59375 90.480025,112.613271 88.4409523,114.652344 C86.4018796,116.691416 85.3823586,119.164048 85.3823586,122.070312 C85.3823586,125.398454 86.4487542,127.988272 88.5815773,129.839844 C90.7144005,131.691416 93.2104693,132.617187 96.0698586,132.617187 Z M96.0698586,132.617187" id="Triangle 1" fill="#000000"></path>
    </g>
</svg>